<?xml version="1.0" encoding="UTF-8"?>
<svg id="Layer_2" data-name="Layer 2" xmlns="http://www.w3.org/2000/svg" viewBox="0 0 34.03 29.37">
  <defs>
    <style>
      .cls-1 {
        fill: #eb5b44;
      }
    </style>
  </defs>
  <g id="Layer_1-2" data-name="Layer 1">
    <circle class="cls-1" cx="14.69" cy="14.69" r="14.69"/>
    <path d="m1.32,13.86c.2-.51.59-.73,1.11-.66.68.09,1.08-.12,1.45-.75.67-1.14,1.81-1.63,3.09-1.77,2.17-.24,4.36-.23,6.54-.22,3.85,0,7.71,0,11.56.03,1.23,0,2.47.05,3.69.26,1.38.24,2.44.96,3.05,2.25.08.16.18.21.35.2.31-.01.62-.01.93,0,.59.02.95.38.94.9-.01.51-.38.83-.95.86-.25.01-.58-.12-.73.06-.12.15-.03.47-.05.71-.16,2.27-.91,4.26-2.78,5.68-1.49,1.13-3.15,1.37-4.92.8-1.7-.55-3.01-1.68-4.18-2.99-.88-.99-1.55-2.1-1.85-3.41-.1-.44-.5-.74-.9-.73-.39,0-.78.29-.88.71-.49,2.09-1.83,3.59-3.41,4.92-1.01.86-2.15,1.49-3.48,1.71-2.01.32-3.67-.35-5-1.85-1.34-1.52-1.91-3.33-1.88-5.34,0-.22-.06-.29-.27-.27-.11.01-.21,0-.32,0-.53.05-.9-.16-1.12-.65v-.45Zm17.75-1.55c0-.13-.1-.09-.16-.09-.82,0-1.63,0-2.45,0-.17,0-.22.04-.13.2.16.28.33.57.41.89.04.14.13.14.24.11.25-.07.5-.12.75-.1.27.01.6.18.79.08.19-.11.24-.47.35-.72.06-.12.13-.24.19-.36Z"/>
  </g>
</svg>