<?xml version="1.0" encoding="UTF-8"?>
<svg id="Layer_2" data-name="Layer 2" xmlns="http://www.w3.org/2000/svg" viewBox="0 0 29.37 33.76">
  <defs>
    <style>
      .cls-1 {
        fill: #eb5b44;
      }
    </style>
  </defs>
  <g id="Layer_1-2" data-name="Layer 1">
    <circle class="cls-1" cx="14.69" cy="15.7" r="14.69"/>
    <path d="m16.08,33.76h-2.69c-.06,0-.12-.02-.19-.02-2.08-.06-4.15-.24-6.19-.63-1.63-.31-3.22-.76-4.73-1.48-.75-.36-1.46-.79-2.07-1.38-.11-.11-.13-.18-.05-.33,3.51-5.97,7.01-11.94,10.5-17.91.04-.06.1-.13.1-.2,0-.42.07-.85-.04-1.27-.53-1.99-1.06-3.99-1.59-5.98-.02-.08-.05-.16-.05-.25,0-1.38,0-2.77,0-4.15,0-.13.05-.15.16-.15.46,0,.92,0,1.38,0,.14,0,.16.04.16.17,0,.87,0,1.73,0,2.6,0,.14.04.21.17.27,1.32.61,2.6,1.29,3.71,2.24.07.06.11.03.16-.01.16-.14.32-.27.49-.4,1-.74,2.09-1.32,3.22-1.84.11-.05.15-.11.15-.23,0-.88,0-1.76,0-2.63,0-.13.03-.17.16-.16.45,0,.91,0,1.36,0,.15,0,.18.05.18.19,0,1.37,0,2.74,0,4.12,0,.09-.01.18-.04.27-.41,1.5-.82,3.01-1.22,4.51-.22.84-.54,1.66-.44,2.56.01.12.03.22.09.32.39.65.77,1.3,1.15,1.96,3.12,5.33,6.25,10.66,9.38,15.98.09.15.06.23-.05.33-.28.27-.59.51-.91.73-1.15.75-2.41,1.24-3.72,1.62-2.34.68-4.74.96-7.16,1.1-.46.03-.92.01-1.37.07Z"/>
  </g>
</svg>