<?xml version="1.0" encoding="UTF-8"?>
<svg id="Layer_2" data-name="Layer 2" xmlns="http://www.w3.org/2000/svg" viewBox="0 0 29.37 31.9">
  <defs>
    <style>
      .cls-1 {
        fill: #eb5b44;
      }
    </style>
  </defs>
  <g id="Layer_1-2" data-name="Layer 1">
    <circle class="cls-1" cx="14.69" cy="14.69" r="14.69"/>
    <path d="m18.81,31.05c-.37,1.02-1.13.84-1.99.64-2.3-.54-4.62-1.03-6.94-1.5-.45-.09-.5-.22-.41-.65.87-3.91,2.02-7.69,4.72-10.79.27-.31.27-.6.13-.97-.79-2.11-1.56-4.24-2.36-6.35-.15-.4-.16-.71.08-1.07,1.03-1.53,1.91-3.16,2.83-4.76.41-.71.72-1.41.63-2.25-.06-.6.14-.84.77-.48,1.72.99,3.47.98,5.19.01.6-.34.87-.18.8.44-.14,1.12.32,2.03.86,2.94.81,1.38,1.61,2.76,2.55,4.07.27.38.3.69.13,1.13-.8,2.08-1.55,4.18-2.35,6.26-.16.42-.13.71.16,1.04,2.7,3.1,3.85,6.88,4.72,10.79.1.47-.01.56-.43.64-2.59.54-5.18,1.07-7.75,1.68-.82.19-.78-.64-1.34-.82Z"/>
  </g>
</svg>