<?xml version="1.0" encoding="UTF-8"?>
<svg id="Layer_2" data-name="Layer 2" xmlns="http://www.w3.org/2000/svg" viewBox="0 0 29.37 30.67">
  <defs>
    <style>
      .cls-1 {
        fill: #eb5b44;
      }
    </style>
  </defs>
  <g id="Layer_1-2" data-name="Layer 1">
    <circle class="cls-1" cx="14.69" cy="15.98" r="14.69"/>
    <g>
      <path d="m13.88,24.62c-.31-.11-.64-.16-.94-.32-1.69-.92-1.95-3.17-.53-4.43,1.31-1.16,3.28-.82,4.16.68.6,1.03.41,2.43-.45,3.27-.41.41-.91.64-1.47.77-.04,0-.07.03-.11.04h-.67Z"/>
      <path d="m14.4,0c1.56.01,3.09.26,4.52.88,1.61.7,2.87,1.79,3.49,3.48.52,1.44.58,2.9-.02,4.34-.38.91-1,1.66-1.71,2.33-.85.79-1.8,1.45-2.74,2.11-.82.57-1.4,1.29-1.7,2.25-.07.24-.19.46-.31.68-.23.42-.58.7-1.05.82-.62.15-1.23.17-1.81-.14-.62-.33-.96-.88-1.06-1.56-.15-.93.11-1.78.63-2.56.55-.83,1.31-1.45,2.08-2.06.71-.57,1.45-1.09,2.08-1.75.98-1.02,1.27-2.18.7-3.5-.29-.67-.84-1.1-1.53-1.32-1.02-.32-2.05-.32-3.04.1-.65.27-1.07.8-1.4,1.4-.28.5-.49,1.04-.77,1.54-.46.82-1.26,1.22-2.19,1.12-.36-.04-.7-.11-1-.29-.59-.35-.9-.88-.93-1.56-.04-1.03.27-1.97.84-2.82.61-.93,1.43-1.64,2.37-2.21.95-.57,1.98-.94,3.06-1.13.5-.09,1-.15,1.5-.14Z"/>
    </g>
  </g>
</svg>