<?xml version="1.0" encoding="UTF-8"?>
<svg id="Layer_2" data-name="Layer 2" xmlns="http://www.w3.org/2000/svg" viewBox="0 0 32.14 29.37">
  <defs>
    <style>
      .cls-1 {
        fill: #eb5b44;
      }
    </style>
  </defs>
  <g id="Layer_1-2" data-name="Layer 1">
    <circle class="cls-1" cx="17.45" cy="14.69" r="14.69"/>
    <path d="m6.49,14.09c-.55.5-.77,1.17-.99,1.83-.8,2.43-1.18,4.94-1.35,7.48-.04.61-.1,1.18-.49,1.67-.34.42-.23.92-.23,1.39,0,.43-.14.64-.59.6-.2-.02-.4,0-.59,0q-1.39,0-1.49-1.36c0-.08.01-.18-.02-.25-1.52-4.34-.44-8.47,1.11-12.51.9-2.35,2.41-4.34,4.47-5.86.57-.42,1.15-.64,1.88-.63,1.64.02,1.74-.07,2.28-1.59.82.73,1.78,1.07,2.86,1.03.45-.01.39.31.39.58,0,.85,0,1.7,0,2.55,0,5.6,0,11.21,0,16.81,0,.17-.03.35,0,.51.06.27-.19.75.25.75.35,0,.18-.47.18-.72.01-5.15,0-10.3,0-15.45,0-1.47.02-2.94,0-4.42,0-.46.11-.63.61-.63.98,0,1.88-.29,2.64-1.08.25.55.18,1.16.74,1.44.51.25,1.05.24,1.58.21.69-.04,1.26.2,1.8.61,3.19,2.41,4.82,5.75,5.71,9.54.54,2.31.6,4.65.53,7-.01.4-.07.81-.27,1.14-.32.51-.41,1.05-.35,1.62.06.57-.18.78-.73.71-.17-.02-.34,0-.51,0q-1.27,0-1.41-1.29c-.02-.16-.05-.36-.14-.48-.59-.74-.57-1.62-.66-2.49-.23-2.39-.58-4.77-1.37-7.05-.21-.6-.44-1.21-.97-1.72-.28.89-.22,1.74-.29,2.57-.17,2.14-.31,4.29-.44,6.43-.06.93.03,1.86.15,2.79.07.55.2,1.13-.52,1.44-.31.13-.17.52-.15.78.04.53-.18.69-.69.68-3.65-.01-7.3,0-10.95-.01-.19,0-.56,0-.53-.13.25-1.17-1.11-1.79-.83-3.12.46-2.18.08-4.45-.09-6.68-.1-1.3-.2-2.59-.31-3.89-.02-.27.07-.57-.21-.82Z"/>
  </g>
</svg>