<?xml version="1.0" encoding="UTF-8"?>
<svg id="Layer_2" data-name="Layer 2" xmlns="http://www.w3.org/2000/svg" viewBox="0 0 29.37 34.01">
  <defs>
    <style>
      .cls-1 {
        fill: #eb5b44;
      }
    </style>
  </defs>
  <g id="Layer_1-2" data-name="Layer 1">
    <circle class="cls-1" cx="14.69" cy="19.32" r="14.69"/>
    <path d="m10.95,29.5c-.01-.13-.03-.27-.03-.4-.05-9.6-.09-19.2-.15-28.8C10.77.07,10.82,0,11.07,0c4.8,0,9.6,0,14.4,0,.21,0,.3.03.29.27-.06,9.56-.1,19.12-.15,28.68,0,.43.05.38-.39.38-1.59,0-3.19,0-4.78,0-.25,0-.32-.06-.33-.32-.03-2.59-.15-5.18-.3-7.77-.13-2.31-.3-4.61-.57-6.91-.2-1.68-.41-3.37-.91-5-.09-.28-.17-.56-.38-.88-.96,7.03-1.78,13.99-1.86,21.02h-5.13Z"/>
  </g>
</svg>