<?xml version="1.0" encoding="UTF-8"?>
<svg id="Layer_2" data-name="Layer 2" xmlns="http://www.w3.org/2000/svg" viewBox="0 0 29.37 33.75">
  <defs>
    <style>
      .cls-1 {
        fill: #eb5b44;
      }
    </style>
  </defs>
  <g id="Layer_1-2" data-name="Layer 1">
    <circle class="cls-1" cx="14.69" cy="19.06" r="14.69"/>
    <g>
      <path d="m21.1,27.35c-.26-.2-.28-.5-.31-.79-.02-.18.1-.26.28-.28,1.02-.12,2.05-.24,3.07-.37.14-.02.28-.04.42-.05.16-.02.25-.1.23-.27-.02-.16-.14-.2-.27-.18-.57.06-1.15.13-1.72.19-.63.07-1.25.15-1.88.23-.19.02-.3-.06-.34-.25-.26-1.22-.6-2.44-.49-3.71,0-.08,0-.16,0-.24-.01-.14-.08-.25-.23-.25-.16,0-.23.11-.24.26,0,.03,0,.05,0,.08.11,1.28-.18,2.51-.46,3.74q-.09.4-.51.35c-1.85-.22-3.69-.43-5.54-.65-.19-.02-.27-.1-.24-.29.18-1.4.36-2.8.53-4.21.15-1.19.31-2.38.45-3.57.06-.5.08-.53.58-.53.82,0,1.64,0,2.46,0,.07,0,.14,0,.21,0,.13-.02.21-.1.21-.23,0-.12-.08-.2-.2-.22-.08-.01-.16-.01-.24-.01-.8,0-1.6,0-2.4,0-.45,0-.5-.06-.43-.5,0-.04.01-.09.02-.13.05-.37.24-.55.62-.55.74,0,1.48,0,2.22,0,2.68,0,5.36,0,8.04,0,.55,0,.9.46.75.99-.03.11-.11.18-.23.19-.09,0-.18,0-.27,0-2.26,0-4.52,0-6.78,0-.19,0-.44-.05-.44.24,0,.27.25.22.43.22,2.33,0,4.66,0,7,0,.35,0,.4.03.45.38.17,1.32.33,2.64.5,3.97.15,1.19.3,2.38.45,3.57.01.11.03.23.04.34.02.21-.07.32-.28.34-.25.03-.49.07-.74.09-.16.02-.28.08-.27.26.02.19.17.2.32.19.25-.03.5-.05.74-.08.24-.03.35.08.37.3,0,.09.02.18.03.26.05.31-.07.48-.37.52-1,.13-1.99.24-2.99.36-.65.08-1.31.15-1.96.23-.03,0-.06.03-.09.04h-.48Z"/>
      <path d="m18.11,27.35c-.35-.11-.72-.11-1.07-.16-1.28-.16-2.56-.3-3.84-.45-.46-.05-.56-.19-.49-.65.01-.09.01-.18.03-.27.03-.17.11-.24.29-.22,1.88.23,3.76.45,5.64.67.21.02.29.11.25.31-.06.27-.07.57-.32.76h-.48Z"/>
      <path d="m19.83,9.83c0,1.36,0,2.72,0,4.09,0,.49-.05.54-.53.54-1.51,0-3.03,0-4.54,0-.75,0-1.1.33-1.19,1.07-.22,1.8-.45,3.6-.68,5.4-.17,1.31-.33,2.63-.49,3.94-.05.38-.18.51-.57.51-2.25,0-4.5,0-6.76,0-.45,0-.64-.18-.64-.63,0-1.86,0-3.72,0-5.58,0-.24.07-.43.26-.59.26-.22.46-.49.63-.79.32-.56.92-.56,1.24,0,.5.86,1.24,1.34,2.22,1.47,1.49.2,3-1.05,3.08-2.55.09-1.59-.84-2.79-2.39-3.07-.18-.03-.37-.03-.56-.03-1.32,0-2.63,0-3.95,0-.45,0-.54-.09-.54-.55,0-2.44,0-4.88,0-7.32,0-.07,0-.14,0-.21,0-.17-.04-.33-.23-.33-.21,0-.25.16-.25.33,0,1.17,0,2.33,0,3.5,0,.46-.1.54-.54.42-.68-.19-1.37-.38-2.05-.57-.3-.08-.35-.19-.23-.46.79-1.82,1.59-3.65,2.39-5.47.36-.8.96-1.36,1.78-1.68.49-.19.98-.36,1.48-.53.24-.08.3-.03.24.21-.11.43.02.85.09,1.27.13.75.27,1.5.42,2.25.18.92,1.01,1.47,1.93,1.25.22-.05.46-.2.64-.14.19.06.08.38.17.57.15.34.37.6.71.77.22.11.44.24.67.33.21.08.28.21.28.44-.01,2.03,0,4.06,0,6.09,0,.07,0,.14,0,.21,0,.15.07.25.21.26.16,0,.24-.1.24-.26,0-.46,0-.93,0-1.39,0-1.65,0-3.29,0-4.94,0-.2.05-.31.23-.39.2-.08.38-.19.57-.28.55-.25.87-.66.93-1.27.01-.16.05-.19.21-.14.42.12.83.26,1.28.13.6-.17,1.01-.56,1.13-1.16.21-1.01.37-2.03.56-3.04.04-.2.02-.39-.03-.58-.05-.23,0-.29.22-.22.54.19,1.08.36,1.6.58.76.31,1.33.86,1.67,1.61.81,1.83,1.6,3.66,2.4,5.49.11.25.05.36-.23.45-.71.2-1.42.4-2.13.6-.34.09-.47,0-.47-.35,0-1.17,0-2.33,0-3.5,0-.07,0-.14,0-.21-.02-.13-.11-.21-.24-.21-.12,0-.2.09-.21.2-.01.09-.01.18-.01.27,0,1.39,0,2.78,0,4.17Z"/>
      <path d="m5.98,14.07c1.01,0,2.01,0,3.02,0,1.35.01,2.4,1.04,2.42,2.34.02,1.07-.71,2.04-1.73,2.33-1.03.29-2.13-.14-2.67-1.07-.25-.42-.55-.72-1.06-.73-.48,0-.82.23-1.05.64-.34.62-.85,1.02-1.54,1.18-1.27.29-2.51-.46-2.84-1.72-.32-1.23.41-2.5,1.65-2.86.27-.08.56-.11.84-.11.99,0,1.98,0,2.96,0Zm-2.96,3.25c.62,0,1.19-.41,1.38-.98.05-.15.08-.31-.1-.39-.18-.08-.27.05-.33.21-.16.44-.47.68-.94.69-.45.01-.77-.22-.96-.7-.06-.15-.15-.28-.33-.21-.17.07-.16.21-.11.36.19.6.76,1.01,1.39,1.01Zm5.83,0c.62,0,1.19-.42,1.38-1,.05-.16.07-.31-.11-.38-.19-.07-.26.07-.33.22-.18.45-.51.69-.95.69-.44,0-.77-.23-.95-.68-.06-.15-.14-.3-.33-.23-.2.07-.17.24-.11.4.21.59.76.98,1.39.98Z"/>
      <path d="m12.15,0c.76,0,1.51,0,2.27,0,.59,0,.89.47.63,1.02-.04.09-.1.17-.16.25-.87,1.21-1.74,2.43-2.61,3.64-.13.19-.19.18-.32,0-.87-1.23-1.76-2.46-2.64-3.68-.22-.3-.26-.62-.12-.95C9.29.09,9.42,0,9.65,0c.84,0,1.67,0,2.51,0Z"/>
      <path d="m10.63,5.6c0-.46-.19-.61-.64-.49-.21.05-.41.12-.62.16-.68.16-1.28-.22-1.41-.91-.18-.96-.35-1.92-.53-2.88-.04-.2-.03-.4.09-.57.23-.34.49-.65.91-.77.22-.07.3-.01.25.2-.11.45.03.84.29,1.2.91,1.26,1.81,2.53,2.72,3.79.14.19.22.37.2.61-.02.25,0,.5,0,.75,0,.11-.01.19-.15.11-.24-.13-.5-.24-.73-.39-.29-.19-.43-.47-.4-.82Z"/>
      <path d="m12.35,6.12c-.09-.35.1-.67.34-1,.86-1.17,1.7-2.37,2.56-3.55.27-.38.43-.77.31-1.24-.04-.18.03-.25.22-.2.67.17,1.12.85,1,1.53-.16.91-.32,1.82-.49,2.72-.13.69-.74,1.06-1.45.88-.21-.05-.41-.11-.62-.17-.4-.1-.62.06-.6.46.02.46-.18.76-.57.97-.18.09-.37.18-.55.28-.12.06-.16.02-.16-.1,0-.17,0-.34,0-.58Z"/>
      <path d="m20.3,10.66c0-.58,0-.58.57-.74.75-.21,1.51-.41,2.25-.64.26-.08.39,0,.49.24.34.8.27.98-.57,1.21-.74.2-1.47.4-2.21.6-.45.12-.53.06-.53-.41,0-.09,0-.18,0-.27Z"/>
      <path d="m3.95,10.67c0,.12,0,.23,0,.35,0,.34-.12.43-.45.34-.78-.21-1.55-.43-2.33-.65-.11-.03-.22-.06-.33-.09-.33-.11-.49-.42-.35-.74.32-.76.24-.7.94-.5.75.21,1.5.42,2.26.61.21.05.31.13.27.36-.02.1,0,.21,0,.32Z"/>
    </g>
  </g>
</svg>