<?xml version="1.0" encoding="UTF-8"?>
<svg id="Layer_2" data-name="Layer 2" xmlns="http://www.w3.org/2000/svg" viewBox="0 0 29.37 29.37">
  <defs>
    <style>
      .cls-1 {
        fill: #eb5b44;
      }
    </style>
  </defs>
  <g id="Layer_1-2" data-name="Layer 1">
    <circle class="cls-1" cx="14.69" cy="14.69" r="14.69"/>
    <g>
      <path d="m16.74,11.64c.46.73.55,1.42.44,2.22-.4,2.88-.72,5.78-1.08,8.66-.03.25.03.42.22.57.65.56,1.3,1.12,1.94,1.69.24.22.44.19.68-.02.63-.56,1.26-1.1,1.89-1.65.17-.15.28-.3.25-.56-.38-2.99-.74-5.97-1.13-8.96-.07-.56.02-1.06.25-1.56.12-.26.21-.28.42-.1.38.32.79.62,1.17.93.24.19.43.18.59-.08,1.08-1.7,2.16-3.4,2.61-5.41q.21-.95,1.2-.66c.27.08.53.16.8.25,1.67.57,2.36,1.55,2.36,3.31,0,4.91,0,9.82,0,14.74,0,.81,0,.81-.79.81-6.65,0-13.3,0-19.95,0-.8,0-.81,0-.81-.8,0-4.95,0-9.9,0-14.86,0-1.62.7-2.62,2.24-3.15.53-.18,1.12-.55,1.58-.43.53.14.31.93.47,1.41.59,1.72,1.49,3.26,2.47,4.76.2.32.4.24.64.05.5-.4,1-.79,1.53-1.2Z"/>
      <path d="m20.5,22.31c.08.26-.05.47-.29.66-.46.38-.92.77-1.36,1.17-.21.19-.35.18-.55,0-.36-.34-.72-.7-1.13-.97-.49-.33-.56-.74-.49-1.28.36-2.79.72-5.57,1.04-8.36.05-.42.21-.47.56-.47,1.07,0,1.09-.01,1.21.95.34,2.75.67,5.5,1.01,8.3Z"/>
      <path d="m22.9,5.99c-.3.7-.8,1.16-1.32,1.6-.84.72-1.78,1.28-2.76,1.77-.18.09-.35.17-.56.06-1.42-.74-2.8-1.53-3.83-2.8-.13-.17-.3-.32-.3-.61,2.91-.49,5.81-.5,8.76-.02Z"/>
      <path d="m18.93,9.95c2.04-1.34,4.46-2.24,4.8-5.14.6.38.8.96.84,1.6.05.79-.19,1.54-.48,2.26-.48,1.21-1.15,2.32-1.85,3.41-.09.14-.15.36-.4.16-.96-.77-1.93-1.53-2.9-2.29Z"/>
      <path d="m13.26,4.72c.03,1.8,1.14,2.81,2.37,3.73.64.48,1.32.88,2.04,1.23.31.15.41.25.07.51-.84.63-1.66,1.3-2.49,1.95-.15.12-.29.31-.47.02-1.03-1.66-2.07-3.32-2.39-5.29-.14-.85.15-1.54.87-2.15Z"/>
      <path d="m18.53,3.88c1.37.08,2.73.1,4.05.42.45.11.69.56.55.99-.1.28-.29.14-.44.12-1.72-.24-3.45-.3-5.19-.26-1.04.02-2.06.16-3.09.28-.23.03-.56.26-.58-.2-.02-.36-.07-.8.45-.89.74-.13,1.49-.26,2.24-.34.67-.07,1.35-.07,2.01-.1Z"/>
      <path d="m18.66,12.56c-.92,0-1.22-.25-1.38-1.09-.02-.1-.05-.21.03-.28.3-.25.61-.51.93-.74.48-.35.68.18.91.38.26.22.85.26.63.89-.22.6-.47,1.05-1.12.84Z"/>
    </g>
  </g>
</svg>