<?xml version="1.0" encoding="UTF-8"?>
<svg id="Layer_2" data-name="Layer 2" xmlns="http://www.w3.org/2000/svg" viewBox="0 0 33.65 29.37">
  <defs>
    <style>
      .cls-1 {
        fill: #eb5b44;
      }
    </style>
  </defs>
  <g id="Layer_1-2" data-name="Layer 1">
    <circle class="cls-1" cx="18.96" cy="14.69" r="14.69"/>
    <g>
      <path d="m0,25.57s0-.03,0-.05c0-.03.02-.06.03-.08.15-.59.29-1.19.44-1.78.47-1.89.93-3.78,1.4-5.66.23-.93.46-1.86.69-2.79.23-.94.46-1.88.7-2.83.35-1.43.71-2.86,1.06-4.3.03-.11.03-.26.1-.32.08-.07.22.02.33.03,0,0,0,0,.01,0,1.3.21,2.62.28,3.94.33,1.79.07,3.58.08,5.37.03,2.13-.06,4.26-.13,6.38-.46.27-.04.27-.04.35.22.19.61.34,1.23.5,1.84.49,1.88.96,3.76,1.43,5.64.23.94.47,1.87.71,2.81.24.94.47,1.87.7,2.81.24.95.48,1.91.71,2.86.12.47.23.95.33,1.43.04.2-.02.35-.16.48-.4.4-.85.71-1.35.96-.12.06-.25.11-.38.16-1.31.52-2.68.8-4.07,1-1.32.19-2.66.28-3.99.33-2.74.1-5.48.05-8.21-.25-1.32-.14-2.62-.36-3.9-.72-.85-.24-1.67-.55-2.4-1.06C.46,26.02.25,25.78,0,25.57Zm8.18-14.91c0-.26-.06-.5-.23-.7-.04-.04-.07-.13-.13-.11-.07.02-.04.11-.04.17.03.33-.05.63-.18.93-.26.61-.66,1.12-1.03,1.65-.38.54-.8,1.06-1.2,1.59-.28.37-.58.73-.81,1.14-.05.09-.15.17-.13.25.03.09.14.14.2.22.08.1.13.07.21,0,.38-.4.74-.81,1.1-1.22.69-.79,1.35-1.62,1.81-2.57.21-.43.39-.88.4-1.36Zm10.01-.7s-.03,0-.03,0c-.01.01-.02.02-.04.04-.32.33-.37.74-.29,1.17.09.5.32.96.57,1.39.41.73.94,1.38,1.48,2.02.22.25.44.5.65.75.18.22.38.42.59.61.05.04.1.09.17.05.19-.11.24-.27.13-.46-.11-.2-.23-.39-.37-.57-.67-.92-1.41-1.78-2.04-2.72-.24-.36-.47-.73-.65-1.12-.11-.23-.17-.47-.16-.73,0-.14.01-.29-.01-.43Z"/>
      <path d="m12.73,7.07c-1.84-.01-3.46-.06-5.07-.21-.94-.08-1.88-.15-2.81-.26-.11-.01-.18-.03-.16-.18.07-.53.11-1.06.16-1.6,0-.1.06-.13.15-.12.54.04,1.08.08,1.61.13.92.07,1.85.12,2.77.15,1.88.06,3.75.06,5.63.02,1.54-.03,3.07-.09,4.61-.17.35-.02.69-.02,1.04-.04.08,0,.12.02.12.1.04.49.11.98.14,1.47,0,.09-.02.13-.11.14-.44.06-.89.1-1.33.14-.61.06-1.23.09-1.84.16-1.71.2-3.43.22-4.92.25Z"/>
    </g>
  </g>
</svg>