<?xml version="1.0" encoding="UTF-8"?>
<svg id="Layer_2" data-name="Layer 2" xmlns="http://www.w3.org/2000/svg" viewBox="0 0 34.88 29.37">
  <defs>
    <style>
      .cls-1 {
        fill: #eb5b44;
      }
    </style>
  </defs>
  <g id="Layer_1-2" data-name="Layer 1">
    <circle class="cls-1" cx="20.2" cy="14.69" r="14.69"/>
    <path d="m23.25,14.18c0,3.95-.05,7.67.03,11.39.02,1.14-.33,1.42-1.43,1.41-4.94-.06-9.88-.05-14.82,0-1.02.01-1.31-.31-1.29-1.31.05-3.36.02-6.72.02-10.08,0-.39,0-.78,0-1.12-.15-.06-.2-.1-.23-.09q-2.04.87-3.18-1.11c-.7-1.23-1.39-2.47-2.13-3.67-.38-.63-.28-.99.36-1.35,2.78-1.57,5.54-3.18,8.3-4.78.48-.28.82-.37,1.21.18,1.87,2.62,7.18,2.51,8.88-.07.3-.45.6-.41,1.01-.17,2.87,1.67,5.74,3.32,8.62,4.97.49.28.57.59.29,1.08-1.02,1.75-2.02,3.5-3.01,5.26-.29.52-.62.69-1.16.33-.39-.27-.82-.48-1.46-.85Z"/>
  </g>
</svg>