<?xml version="1.0" encoding="UTF-8"?>
<svg id="Layer_2" data-name="Layer 2" xmlns="http://www.w3.org/2000/svg" viewBox="0 0 32.88 29.37">
  <defs>
    <style>
      .cls-1 {
        fill: #eb5b44;
      }
    </style>
  </defs>
  <g id="Layer_1-2" data-name="Layer 1">
    <circle class="cls-1" cx="18.19" cy="14.69" r="14.69"/>
    <path d="m26.24,19.74c-.06.35-.12.7-.18,1.05-.28,1.59-1.18,2.69-2.61,3.41-1.51.76-3.11,1.04-4.78.99-1.62-.04-3.19-.37-4.74-.86-.47-.14-1-.14-1.47,0-1.56.49-3.15.83-4.79.85-2.11.03-4.1-.39-5.82-1.72-.86-.67-1.27-1.59-1.49-2.61-.32-1.49-.22-2.99.02-4.48.1-.61.21-1.23.37-1.83.02-.07.02-.15.01-.23-.09-1.17-.18-2.35-.27-3.52-.1-1.23-.19-2.45-.29-3.68-.06-.78-.12-1.57-.19-2.35-.04-.41-.05-.4.35-.43.53-.03,1.06-.07,1.58-.13.15-.01.19.02.2.17.1,1.29.2,2.57.3,3.86.1,1.21.19,2.42.29,3.62.06.7.12,1.4.16,2.09.01.19.07.24.25.23,1.27-.06,2.52.06,3.75.4,2.45.68,4.15,2.17,5.03,4.57.32.87.55,1.75.67,2.67.02.19.07.32.31.28.19-.03.39-.01.59,0,.18.01.26-.03.29-.24.21-1.46.6-2.87,1.37-4.15.83-1.38,2.04-2.3,3.53-2.86,1.45-.55,2.96-.74,4.5-.67.25.01.32-.07.33-.3.06-1.47.14-2.93.22-4.4.09-1.69.18-3.38.26-5.07,0-.16.05-.22.23-.21.56.04,1.13.07,1.69.09.19,0,.26.04.25.26-.1,1.83-.19,3.67-.28,5.5-.07,1.42-.15,2.85-.23,4.27-.02.34.12.65.19.97.16.82.31,1.64.36,2.48,0,.07.03.13.05.2v1.74Z"/>
  </g>
</svg>